<?xml version="1.0" encoding="UTF-8"?>
<svg id="Layer_2" data-name="Layer 2" xmlns="http://www.w3.org/2000/svg" viewBox="0 0 845.45 515.4">
  <defs>
    <style>
      .cls-1 {
        fill: #231f20;
      }
    </style>
  </defs>
  <g id="Layer_2-2" data-name="Layer 2">
    <g id="Layer_1-2" data-name="Layer 1-2">
      <g>
        <path d="M128.71,337.14v151.5c0,4.19-10.68,12.56-14.33,14.67-51.75,29.92-122.83,2.81-113.56-64.55,5.93-43.06,52.65-66.44,89.89-42.62v-59h38ZM90.95,427.35c-19.42-13.53-49.86-9.19-53.53,17.56-4.56,33.24,26.76,44.93,53.28,32.28,0,0,.25-49.84.25-49.84Z"/>
        <path d="M769.48,387.42c48.15-5.41,85.24,31.55,73.91,79.91-13.87,59.18-104.3,63.54-125.44,8.08-14.97-39.25,9.13-83.22,51.54-87.98h-.01ZM773.47,420.4c-29.88,4.36-32.57,54.46-.81,60.29,47.19,8.66,48.5-67.25.81-60.29Z"/>
        <path d="M475.71,390.14v72.5c0,.4,2.08,6.68,2.48,7.52,6.59,13.67,33.53,15.44,41.95,3.92.83-1.13,4.57-8.67,4.57-9.43v-74.51h36v80.5c0,4.63-5.44,14.76-8.19,18.81-22.98,33.95-85.18,33.41-106.35-2.28-3.14-5.29-7.47-16.55-7.47-22.53v-74.5h37.01Z"/>
        <path d="M699.71,510.14h-36v-70.5c0-5.28-6.4-15.33-11.29-17.71-6.71-3.28-21.36-2.42-27.67,1.76-3.75,2.49-8.05,10.67-8.05,14.95v71.5h-36v-81.5c0-8.74,9.75-23.93,16.52-29.48,19.75-16.17,64.78-17.11,84.49-.53,7.23,6.08,17.99,23.64,17.99,33.01v78.5h0Z"/>
        <path d="M297.71,393.14v32c-10.86-6.62-43.46-12.55-53.02-4.52-6.94,5.83-1.09,9.11,4.75,11.3,16.64,6.23,39.82,4.87,51.1,20.9,12.09,17.18,5.16,44.55-13.5,54.15-21.72,11.18-59.81,7.08-81.33-3.33v-31.5c16.8,6.29,35.16,12.83,53.49,10.99,5.74-.58,14.39-3.54,10.99-10.98-2.74-5.98-33.31-10.32-41.46-13.53-13.62-5.37-22.66-13.67-24-29-4.15-47.43,61.97-47.81,92.98-36.48h0Z"/>
        <path d="M417.71,392.14v36c-14.09-9.51-35.84-12.18-49.91-1.41-24.31,18.61-9.86,50.83,18.43,53.4,10.4.94,22.53-.41,31.48-5.98v34c-46.36,16.36-103.02-4.47-100.05-60.55,2.72-51.32,56.18-71.49,100.05-55.45h0Z"/>
        <rect x="150.71" y="390.14" width="36" height="120"/>
        <path d="M166.49,333.38c29.09-3.07,32.3,43.41,1.08,42.17-26.39-1.04-27.22-39.41-1.08-42.17Z"/>
      </g>
    </g>
    <g id="Layer_1-2-2" data-name="Layer 1-2">
      <g>
        <path class="cls-1" d="M429.5,322.5h-13.58c-.41,0-.72-.3-.75-.71-.42-9.58-6.3-115.79-66.46-222.53-.31-.56.15-1.2.78-1.1,15.72,2.85,130.71,2.85,146.44,0,.63-.12,1.09.54.78,1.1-60.17,106.74-66.06,212.94-66.46,222.53-.01.41-.34.71-.75.71Z"/>
        <path class="cls-1" d="M446.66,322.5h-11.43c-.63,0-.97-.71-.58-1.2,8.37-10.59,68.25-90.84,68.94-221.5,0-.65.75-.99,1.23-.57,13.37,12.06,109.96,64.08,131.96,73.27-86.55,38.26-183.46,143.31-189.55,149.78-.13.15-.33.22-.54.22h-.02Z"/>
        <path class="cls-1" d="M398.77,322.5h11.49c.62,0,.97-.69.6-1.18-8.16-10.8-68.28-94.67-69-221.54,0-.65-.75-.99-1.21-.56-13.35,12.06-116.91,67.53-131.97,73.27,86.55,60.55,183.48,143.33,189.57,149.78.13.15.33.22.54.22h-.01Z"/>
        <circle class="cls-1" cx="257.26" cy="97.5" r="37.5"/>
        <circle class="cls-1" cx="587.26" cy="97.5" r="37.5" transform="translate(396.95 661.56) rotate(-80.78)"/>
        <circle class="cls-1" cx="422.26" cy="45" r="45"/>
      </g>
    </g>
  </g>
</svg>