<?xml version="1.0" encoding="UTF-8"?>
<svg xmlns="http://www.w3.org/2000/svg" viewBox="0 0 845.44 182.17">
  <g fill="#231f20">
    <path d="M128.71,3.91v151.5c0,4.19-10.68,12.56-14.33,14.67C62.63,200-8.45,172.89.82,105.53,6.75,62.47,53.47,39.09,90.71,62.91V3.91h38ZM90.95,94.12c-19.42-13.53-49.86-9.19-53.53,17.56-4.56,33.24,26.76,44.93,53.28,32.28l.25-49.84Z"/>
    <path d="M769.48,54.19c48.15-5.41,85.24,31.55,73.91,79.91-13.87,59.18-104.3,63.54-125.44,8.08-14.97-39.25,9.13-83.22,51.54-87.98ZM773.47,87.17c-29.88,4.36-32.57,54.46-.81,60.29,47.19,8.66,48.5-67.25.81-60.29Z"/>
    <path d="M475.71,56.91v72.5c0,.4,2.08,6.68,2.48,7.52,6.59,13.67,33.53,15.44,41.95,3.92.83-1.13,4.57-8.67,4.57-9.43V56.91h36v80.5c0,4.63-5.44,14.76-8.19,18.81-22.98,33.95-85.18,33.41-106.35-2.28-3.14-5.29-7.47-16.55-7.47-22.53V56.91h37Z"/>
    <path d="M699.71,176.91h-36v-70.5c0-5.28-6.4-15.33-11.29-17.71-6.71-3.28-21.36-2.42-27.67,1.76-3.75,2.49-8.05,10.67-8.05,14.95v71.5h-36v-81.5c0-8.74,9.75-23.93,16.52-29.48,19.75-16.17,64.78-17.11,84.49-.53,7.23,6.08,17.99,23.64,17.99,33.01v78.5Z"/>
    <path d="M297.71,59.91v32c-10.86-6.62-43.46-12.55-53.02-4.52-6.94,5.83-1.09,9.11,4.75,11.3,16.64,6.23,39.82,4.87,51.1,20.9,12.09,17.18,5.16,44.55-13.5,54.15-21.72,11.18-59.81,7.08-81.33-3.33v-31.5c16.8,6.29,35.16,12.83,53.49,10.99,5.74-.58,14.39-3.54,10.99-10.98-2.74-5.98-33.31-10.32-41.46-13.53-13.62-5.37-22.66-13.67-24-29-4.15-47.43,61.97-47.81,92.98-36.48Z"/>
    <path d="M417.71,58.91v36c-14.09-9.51-35.84-12.18-49.91-1.41-24.31,18.61-9.86,50.83,18.43,53.4,10.4.94,22.53-.41,31.48-5.98v34c-46.36,16.36-103.02-4.47-100.05-60.55,2.72-51.32,56.18-71.49,100.05-55.45Z"/>
    <rect x="150.71" y="56.91" width="36" height="120"/>
    <path d="M166.49.15c29.09-3.07,32.3,43.41,1.08,42.17-26.39-1.04-27.22-39.41-1.08-42.17Z"/>
  </g>
</svg>
