<?xml version="1.0" encoding="UTF-8"?>
<svg xmlns="http://www.w3.org/2000/svg" viewBox="0 0 320 320">
  <circle cx="160" cy="160" r="160" fill="#000"/>

  <g fill="#fff">
    <path d="M161.56,251.38h-7.69c-.23,0-.41-.17-.43-.4-.24-5.43-3.57-65.61-37.66-126.1-.18-.31.08-.68.44-.62,8.91,1.62,74.07,1.62,82.99,0,.36-.07.62.31.44.62-34.09,60.49-37.43,120.67-37.66,126.1,0,.23-.2.4-.43.4Z"/>
    <path d="M171.29,251.38h-6.48c-.36,0-.55-.4-.33-.68,4.74-6,38.68-51.48,39.07-125.52,0-.37.43-.56.7-.32,7.57,6.83,62.31,36.31,74.77,41.52-49.04,21.68-103.96,81.21-107.41,84.87-.08.09-.19.13-.31.13Z"/>
    <path d="M144.15,251.38h6.51c.35,0,.55-.39.34-.67-4.62-6.12-38.69-53.64-39.10-125.54,0-.37-.43-.56-.69-.31-7.56,6.83-66.25,38.27-74.78,41.52,49.05,34.31,103.97,81.22,107.42,84.87.08.09.19.13.31.13Z"/>
    <circle cx="64.48" cy="123.87" r="21.25"/>
    <circle cx="251.48" cy="123.87" r="21.25"/>
    <circle cx="157.98" cy="94.12" r="25.5"/>
  </g>
</svg>
